<svg width="372" height="25" viewBox="0 0 372 25" fill="none" xmlns="http://www.w3.org/2000/svg">
<path d="M3.41461 21.1842H8.12442C13.3052 21.1842 15.5424 16.7105 15.4246 12.2368C15.3069 8.02631 13.1875 3.81579 8.12442 3.81579H3.41461V21.1842ZM8.12442 0C15.4246 0 18.7215 6.05263 18.8392 12.2368C18.957 18.5526 15.5424 25 8.12442 25H0V0H8.12442Z" fill="#525252"/>
<path d="M63.552 21.1842H74.149V25H58.8422V22.7632L65.3181 11.9737L59.3131 1.8421V0H73.9135V3.55263H64.2584L68.9682 11.9737L63.552 21.1842Z" fill="#525252"/>
<path d="M118.859 21.1842H129.456V25H114.149V22.7632L120.625 11.9737L114.62 1.8421V0H129.22V3.55263H119.565L124.275 11.9737L118.859 21.1842Z" fill="#525252"/>
<path d="M173.106 13.6842H180.053C186.058 13.6842 186.058 3.68421 180.053 3.68421H173.106V13.6842ZM173.106 17.3684V25H169.456V0C172.988 0 176.521 0 180.053 0C191.003 0 191.003 17.2368 180.053 17.3684H173.106Z" fill="#525252"/>
<path d="M247.811 2.76316L239.216 17.5H238.627L230.032 2.76316V25H228.266V0H230.267L238.863 14.6053L247.34 0H249.46V25H247.811V2.76316Z" fill="#1A1919"/>
<path d="M291.932 23.2895H308.299L300.057 1.8421L291.932 23.2895ZM310.654 25H289.46L299.115 0H300.881L310.654 25Z" fill="#1A1919"/>
<mask id="mask0_332:71" style="mask-type:alpha" maskUnits="userSpaceOnUse" x="350" y="0" width="22" height="25">
<path d="M350.654 0H371.259V25H350.654V0Z" fill="white"/>
</mask>
<g mask="url(#mask0_332:71)">
<path d="M369.964 4.83092C367.962 2.77778 365.137 1.69082 362.546 1.69082C355.717 1.69082 352.302 6.88406 352.302 12.5604C352.302 18.3575 355.717 23.1884 362.546 23.1884C365.019 23.1884 367.609 22.343 369.611 20.4106V13.6473H361.487V11.9565H371.259V21.0145C368.904 23.5507 365.961 25 362.546 25C354.657 25 350.654 19.2029 350.654 12.5604C350.654 4.95169 355.482 0 362.546 0C365.608 0 368.669 1.20773 371.024 3.62319L369.964 4.83092Z" fill="#1A1919"/>
</g>
</svg>
