<svg width="30" height="30" viewBox="0 0 30 30" fill="none" xmlns="http://www.w3.org/2000/svg">
<g clip-path="url(#clip0_355:59)">
<path d="M19.8912 15.9783H0.978261C0.438259 15.9783 0 15.54 0 15C0 14.46 0.438259 14.0218 0.978261 14.0218H19.8912C20.4312 14.0218 20.8695 14.46 20.8695 15C20.8695 15.54 20.4312 15.9783 19.8912 15.9783Z" fill="#525252"/>
<path d="M14.6739 21.1956C14.4234 21.1956 14.1731 21.1006 13.9825 20.9088C13.6004 20.5266 13.6004 19.9071 13.9825 19.5247L18.5086 14.9988L13.9825 10.4727C13.6004 10.0906 13.6004 9.4708 13.9825 9.08867C14.3649 8.70653 14.9844 8.70653 15.3666 9.08867L20.5839 14.3062C20.966 14.6884 20.966 15.3079 20.5839 15.69L15.3666 20.9073C15.1748 21.1006 14.9245 21.1956 14.6739 21.1956Z" fill="#525252"/>
<path d="M15.6522 29.3479C9.71603 29.3479 4.47531 25.7766 2.29834 20.2486C2.10011 19.7478 2.34778 19.1791 2.85005 18.9809C3.35088 18.7853 3.92098 19.0291 4.11921 19.534C5.99883 24.3066 10.5262 27.3914 15.6522 27.3914C22.4843 27.3914 28.0436 21.8321 28.0436 15C28.0436 8.16793 22.4843 2.60861 15.6522 2.60861C10.5262 2.60861 5.99883 5.69338 4.11921 10.466C3.91954 10.9709 3.35088 11.2147 2.85005 11.0191C2.34778 10.8209 2.10011 10.2522 2.29834 9.75139C4.47531 4.22336 9.71603 0.652088 15.6522 0.652088C23.5631 0.652088 30.0002 7.08912 30.0002 15C30.0002 22.9109 23.5631 29.3479 15.6522 29.3479Z" fill="#525252"/>
</g>
<defs>
<clipPath id="clip0_355:59">
<rect width="30" height="30" fill="white"/>
</clipPath>
</defs>
</svg>
