<svg width="20" height="16" viewBox="0 0 20 16" fill="none" xmlns="http://www.w3.org/2000/svg">
<path d="M0.151526 1.08617C2.97263 3.16086 7.92279 6.81087 9.37771 7.94895C9.57302 8.10255 9.78251 8.18064 9.99998 8.18064C10.217 8.18064 10.4261 8.10328 10.621 7.95041C12.0772 6.81121 17.0273 3.16086 19.8485 1.08617C20.0241 0.957248 20.0509 0.730643 19.9087 0.573031C19.58 0.208825 19.0899 0 18.5646 0H1.43538C0.910137 0 0.419987 0.208825 0.0913064 0.573066C-0.050893 0.730643 -0.0241152 0.957248 0.151526 1.08617Z" fill="#D3D3D3"/>
<path d="M19.7583 2.08831C19.6106 2.01194 19.4369 2.03858 19.314 2.15523C16.2699 5.02189 12.3848 8.69636 11.1625 9.91992C10.4764 10.6079 9.5243 10.6079 8.83664 9.91901C7.53375 8.61495 3.17094 4.49483 0.686016 2.15518C0.562305 2.03854 0.388164 2.01281 0.24168 2.08827C0.0944141 2.16425 0 2.32789 0 2.50823V14.1485C0 15.1697 0.747461 16 1.66668 16H18.3334C19.2525 16 20 15.1697 20 14.1485V2.50823C20 2.32789 19.9056 2.16382 19.7583 2.08831Z" fill="#D3D3D3"/>
</svg>
