<svg width="20" height="20" viewBox="0 0 20 20" fill="none" xmlns="http://www.w3.org/2000/svg">
<g clip-path="url(#clip0_332:86)">
<path d="M19.3728 5.8801C19.1833 5.77321 18.9683 5.71977 18.7508 5.72548C18.5332 5.73119 18.3213 5.79584 18.1377 5.91252L17.151 6.5292C16.1622 6.17057 15.1664 5.77085 14.1887 5.33913C13.3826 4.98319 12.7945 4.6969 12.322 4.46686C11.2828 3.96092 10.8082 3.72944 9.9921 3.74999C9.19522 3.76952 8.73241 4.01752 7.96565 4.42811C7.51382 4.67006 6.95147 4.97108 6.12296 5.33928C5.06268 5.81013 3.97216 6.20968 2.85866 6.53526L1.86214 5.91252C1.67848 5.79584 1.46658 5.73119 1.24906 5.72548C1.03154 5.71977 0.816552 5.77321 0.627021 5.8801C0.435921 5.98417 0.276654 6.13816 0.166211 6.32564C0.055768 6.51313 -0.00170905 6.72708 -8.87357e-05 6.94467V10.625C-0.000743869 10.8315 0.0514827 11.0348 0.151619 11.2155C0.251755 11.3962 0.396469 11.5482 0.571982 11.6571L2.49991 12.8621V13.1843C2.49946 13.413 2.5494 13.6389 2.64618 13.8461C2.74296 14.0533 2.88421 14.2367 3.05987 14.3831C6.38272 17.1554 9.96413 17.1875 9.99991 17.1875C13.1498 17.1875 15.5322 15.6549 16.9762 14.3692C17.1408 14.2225 17.2726 14.0427 17.3628 13.8416C17.4531 13.6404 17.4998 13.4224 17.4999 13.2019V12.9857L19.4278 11.7807C19.6033 11.6718 19.7481 11.5198 19.8482 11.3391C19.9483 11.1584 20.0006 10.9551 19.9999 10.7486V6.94467C20.0015 6.72708 19.9441 6.51313 19.8336 6.32564C19.7232 6.13816 19.5639 5.98417 19.3728 5.8801ZM4.79436 11.5814C6.46238 12.19 8.22433 12.5009 9.99991 12.5C11.7755 12.5009 13.5374 12.19 15.2055 11.5814L15.4194 12.1686C13.6828 12.8022 11.8485 13.126 9.99991 13.125C8.15137 13.1259 6.31702 12.8022 4.58046 12.1686L4.79436 11.5814ZM4.58042 9.35608L4.79436 8.76885C6.46238 9.37747 8.22433 9.6884 9.99991 9.68749C11.7755 9.68842 13.5374 9.37748 15.2055 8.76885L15.4194 9.35608C13.6828 9.98974 11.8485 10.3135 9.99991 10.3125C8.15137 10.3134 6.31702 9.98974 4.58046 9.35612L4.58042 9.35608ZM0.903232 11.1271C0.817845 11.0741 0.747442 11.0002 0.698725 10.9123C0.650007 10.8244 0.624596 10.7255 0.624911 10.625V6.94467C0.624918 6.83898 0.653216 6.73521 0.706867 6.64414C0.760519 6.55307 0.837568 6.47802 0.930016 6.42679C1.02246 6.37555 1.12694 6.34999 1.2326 6.35277C1.33826 6.35554 1.44126 6.38655 1.53089 6.44256L2.49991 7.04819V12.125L0.903232 11.1271ZM19.3749 10.7486C19.3752 10.8491 19.3498 10.948 19.3011 11.0359C19.2524 11.1238 19.182 11.1977 19.0966 11.2507L17.4999 12.2486V7.04819L18.4689 6.44272C18.5586 6.38671 18.6615 6.3557 18.7672 6.35292C18.8728 6.35014 18.9773 6.37569 19.0697 6.4269C19.1622 6.47812 19.2392 6.55315 19.2929 6.64419C19.3466 6.73524 19.3749 6.83899 19.3749 6.94467V10.7486Z" fill="#E5E5E5"/>
</g>
<defs>
<clipPath id="clip0_332:86">
<rect width="20" height="20" fill="white"/>
</clipPath>
</defs>
</svg>
