<svg width="18" height="20" viewBox="0 0 18 20" fill="none" xmlns="http://www.w3.org/2000/svg">
<path d="M11.2872 7.0885C11.3105 6.27541 11.6156 5.7565 11.912 5.25391C12.1775 4.80278 12.4286 4.37669 12.4286 3.8125C12.4286 3.07956 11.7909 2.45603 10.9048 2.22344V1.28125C10.9048 1.12572 10.7345 1 10.5238 1C10.3131 1 10.1429 1.12572 10.1429 1.28125V2.125C9.73981 2.125 9.34971 2.20431 9 2.35591C8.65029 2.20431 8.26019 2.125 7.85714 2.125V1.28125C7.85714 1.12572 7.68686 1 7.47619 1C7.26552 1 7.09524 1.12572 7.09524 1.28125V2.22344C6.20914 2.45603 5.57143 3.07956 5.57143 3.8125C5.57143 4.37669 5.82248 4.80278 6.088 5.25391C6.384 5.7565 6.68952 6.27569 6.71276 7.0885C3.87276 9.66447 1 12.927 1 17.5938C1 17.7051 1.08838 17.8055 1.22629 17.8508C1.36952 17.8978 4.77714 19 9 19C13.2229 19 16.6305 17.8978 16.7737 17.8508C16.9116 17.8055 17 17.7051 17 17.5938C17 12.927 14.1272 9.66447 11.2872 7.0885ZM6.33333 3.8125C6.33333 3.19206 7.01676 2.6875 7.85714 2.6875C8.18362 2.6875 8.49981 2.76737 8.77029 2.91813C8.90552 2.99406 9.0941 2.99406 9.22933 2.91813C9.50019 2.76737 9.81638 2.6875 10.1429 2.6875C10.9832 2.6875 11.6667 3.19206 11.6667 3.8125C11.6667 4.25969 11.4564 4.61631 11.2133 5.02975C11.0781 5.25925 10.9364 5.5045 10.816 5.78125H7.18438C7.064 5.5045 6.92229 5.25953 6.78705 5.02975C6.54362 4.61631 6.33333 4.25969 6.33333 3.8125ZM7.46324 6.90625C7.448 6.70319 7.41676 6.517 7.3741 6.34375H10.6263C10.5836 6.517 10.5524 6.70319 10.5371 6.90625H7.46324ZM1.76343 17.4059C1.8179 13.8692 3.43238 10.9675 7.27848 7.46875H8.81448C12.1623 10.5324 13.8869 14.0568 13.9467 17.949C12.6236 18.2018 10.8884 18.4375 9 18.4375C5.54781 18.4375 2.58819 17.6475 1.76343 17.4059ZM14.7044 17.7932C14.6057 13.9788 12.9528 10.5102 9.78362 7.46875H10.7215C14.568 10.9675 16.1821 13.8694 16.237 17.4062C15.955 17.4888 15.4198 17.6357 14.7044 17.7932Z" fill="black" stroke="black" stroke-width="0.3"/>
</svg>
